<?xml version="1.0" standalone="no"?>
<!DOCTYPE svg PUBLIC "-//W3C//DTD SVG 20010904//EN"
 "http://www.w3.org/TR/2001/REC-SVG-20010904/DTD/svg10.dtd">
<svg version="1.0" xmlns="http://www.w3.org/2000/svg"
 width="1200.000000pt" height="1200.000000pt" viewBox="0 0 1200.000000 1200.000000"
 preserveAspectRatio="xMidYMid meet">
<metadata>
Created by potrace 1.11, written by Peter Selinger 2001-2013
</metadata>
<g transform="translate(0.000000,1200.000000) scale(0.100000,-0.100000)"
fill="#000000" stroke="none">
<path d="M5665 11069 c-1817 -118 -3443 -1216 -4241 -2864 -424 -877 -586
-1866 -463 -2835 179 -1421 938 -2684 2114 -3520 673 -478 1470 -787 2300
-890 1749 -218 3481 488 4590 1870 586 730 958 1609 1074 2540 287 2295 -1012
4489 -3169 5352 -340 136 -757 248 -1125 302 -305 45 -777 65 -1080 45z m530
-1359 c1190 -68 2239 -668 2902 -1660 824 -1232 824 -2868 0 -4100 -284 -424
-623 -763 -1047 -1047 -861 -576 -1939 -761 -2955 -507 -893 223 -1671 775
-2192 1554 -824 1232 -824 2868 0 4100 284 424 623 763 1047 1047 538 360
1181 575 1828 612 200 12 230 12 417 1z"/>
<path d="M6534 5879 c-91 -11 -140 -26 -229 -69 -267 -129 -428 -405 -412
-705 9 -180 73 -326 200 -461 399 -423 1103 -241 1247 322 25 97 27 260 4 353
-9 36 -32 100 -52 141 l-35 75 -7 -52 c-16 -111 -85 -204 -187 -255 -59 -29
-77 -33 -148 -33 -93 0 -164 27 -232 88 -172 156 -129 448 80 548 67 31 64 33
-53 49 -84 11 -91 11 -176 -1z"/>
</g>
</svg>
