<?xml version="1.0" encoding="iso-8859-1"?>
<!-- Generator: Adobe Illustrator 19.1.0, SVG Export Plug-In . SVG Version: 6.00 Build 0)  -->
<!DOCTYPE svg PUBLIC "-//W3C//DTD SVG 1.1//EN" "http://www.w3.org/Graphics/SVG/1.1/DTD/svg11.dtd">
<svg version="1.1" id="Layer_1" xmlns="http://www.w3.org/2000/svg" xmlns:xlink="http://www.w3.org/1999/xlink" x="0px" y="0px"
     viewBox="0 0 841.89 595.28" style="enable-background:new 0 0 841.89 595.28;" xml:space="preserve">
<path style="fill:#222222;" d="M184.707,526.3c9.2,9.2,21.1,13.7,33.1,13.7s24-4.6,33.1-13.7l110.4-110.4
    c31,19.2,67.3,30.4,106.5,30.4c112.2,0,203.1-90.9,203.1-203.1s-90.8-203.2-203-203.2s-203.1,90.9-203.1,203.1
    c0,39.1,11.2,75.5,30.4,106.5L184.707,460C166.408,478.3,166.408,508,184.707,526.3 M327.008,243.1
    c0-77.664,63.236-140.9,140.9-140.9s140.9,63.236,140.9,140.9S545.572,384,467.908,384C390.131,384,327.008,320.764,327.008,243.1"
    />
<circle cx="509.995" cy="283" r="35"/>
</svg>