<?xml version="1.0" encoding="utf-8"?>
<!-- Generator: Adobe Illustrator 19.1.0, SVG Export Plug-In . SVG Version: 6.00 Build 0)  -->
<svg version="1.1" id="Layer_1" xmlns="http://www.w3.org/2000/svg" xmlns:xlink="http://www.w3.org/1999/xlink" x="0px" y="0px"
	 viewBox="703.7 204.3 500 499.9" style="enable-background:new 703.7 204.3 500 499.9;" xml:space="preserve">
<style type="text/css">
	.st0{fill:#2274B5;}
</style>
<g>
	<g>
		<path class="st0" d="M1185.7,222.2c-21.7-21.8-55.6-23.7-79.6-6c-1.5,1.1-2.9,2.3-4.3,3.5l-2.6,2.4l0,0l-10.4,9.9c0,0,0,0-0.1,0.1
			c-0.5,0.5-1,0.9-1.5,1.4c-11.1,9.9-27.4,10.9-39.6,3.1c-0.1-0.1-0.3-0.2-0.4-0.2c-0.1-0.1-0.3-0.2-0.4-0.3
			c-12.2-7.9-28.5-6.9-39.6,3l-1.6,1.5l-150,143.2l-1.8,1.8c-4.3,5-4.1,12.6,0.7,17.4c4.8,4.8,12.4,5,17.4,0.6l0.6-0.6
			c0,0,0,0,0-0.1L994.7,286c0.2-0.2,0.4-0.4,0.6-0.6c0.3-0.4,0.7-0.7,1.1-1c1.5-1.2,3.2-2,5-2.4c4.2-1,8.7,0.2,12,3.4
			c2.6,2.6,3.8,6,3.7,9.3c0,2.9-1.1,5.9-3.3,8.3c-0.1,0.1-0.3,0.3-0.5,0.5c-0.3,0.3-0.6,0.6-0.9,0.9l0,0L840.1,467.3l-49.6,47
			c-0.2,0.2-0.4,0.3-0.6,0.5c-5.8,5.8-5.8,15.1,0,20.9l82.3,82.3c5.6,5.6,14.5,5.7,20.3,0.5l0,0l1.6-1.6l0,0l46.4-49.1l245.1-259
			l0,0l2.4-2.5c1.2-1.4,2.4-2.8,3.5-4.3C1209.4,277.9,1207.4,244,1185.7,222.2z"/>
		<path class="st0" d="M813.3,594.6l-39.9-39.9c-4.3-4.3-11.3-4.3-15.7,0c-0.8,0.8-1.5,1.7-2,2.7l0,0c-9.3,19.4-19.7,43.1-26.9,61.2
			c-6,15.2-11.2,29.4-15.6,42l0,0c-0.8,1.9-0.4,4.2,1.2,5.8c2.5,2.5,2.5,6.5,0,9l-7.1,7.1c-1.3,1.3-2.2,2.7-2.8,4.3
			c-0.2,0.6-0.3,1.1-0.5,1.6l0,0c-1,4.2,0.1,8.7,3.3,12l0,0l0,0c3.3,3.3,7.8,4.4,12,3.4l0,0c0.5-0.2,1-0.3,1.6-0.5
			c1.6-0.6,3-1.6,4.3-2.8l7.1-7.1c2.5-2.5,6.5-2.4,9,0c1.6,1.5,3.9,2,5.8,1.2l0,0c12.6-4.4,26.9-9.6,42-15.6
			c18.2-7.2,41.8-17.6,61.2-26.9l0,0c1-0.5,1.9-1.2,2.7-2c4.3-4.3,4.3-11.4,0-15.7L813.3,594.6z"/>
	</g>
</g>
</svg>
