<?xml version="1.0" encoding="utf-8"?>
<!-- Generator: Adobe Illustrator 18.1.1, SVG Export Plug-In . SVG Version: 6.00 Build 0)  -->
<svg version="1.1" id="Arrow_1_" xmlns="http://www.w3.org/2000/svg" xmlns:xlink="http://www.w3.org/1999/xlink" x="0px" y="0px"
	 viewBox="-32.4 170.9 471 499.9" enable-background="new -32.4 170.9 471 499.9" xml:space="preserve">
<g>
	<path fill="#FFFFFF" d="M344.3,170.9H61.7c-51.9,0-94.1,42.2-94.1,94.2v233c0,52,42.2,94.2,94.2,94.2h4.9c5.5,0,10.1,4.1,10.6,8.4
		c0,0.5-0.1,4.1,0,4.6l-0.1,42.2c0.2,12.8,10.8,23.3,23.6,23.3h0.1c4.8,0,9.5-1.5,14.3-4.9c0.2-0.2,2-1.7,2.2-1.9l71-68.5
		c2.9-2.2,8.1-3.3,15.4-3.3h140.6c51.9,0,94.2-42.2,94.2-94.2V265C438.4,213.1,396.2,170.9,344.3,170.9z M413.9,498.1
		c0,38.4-31.3,69.7-69.6,69.7H203.7c-13.2,0-22.8,2.6-30.3,8.3c-1.3,1-2.5,2-3.6,3.1l-68.1,66v-38.3c0.2-1.3,0.2-2.6,0.2-3.9
		l-0.2-3.6c-1.9-18-16.9-31.6-35-31.6h-4.9c-38.4,0-69.6-31.3-69.6-69.7v-233c0-38.4,31.2-69.7,69.6-69.7h282.5
		c38.4,0,69.6,31.2,69.6,69.7V498.1z"/>
	<path fill="#FFFFFF" d="M260.2,412.6H121c-6.8,0-12.3,5.5-12.3,12.3c0,6.7,5.5,12.3,12.3,12.3h139.2c6.7,0,12.3-5.5,12.3-12.3
		C272.5,418.1,267,412.6,260.2,412.6z"/>
	<path fill="#FFFFFF" d="M295.7,331.4H121c-6.8,0-12.3,5.5-12.3,12.3S114.2,356,121,356h174.7c6.8,0,12.3-5.5,12.3-12.3
		C307.9,336.9,302.5,331.4,295.7,331.4z"/>
</g>
</svg>
