<?xml version="1.0" encoding="utf-8"?>
<!-- Generator: Adobe Illustrator 19.1.0, SVG Export Plug-In . SVG Version: 6.00 Build 0)  -->
<svg version="1.1" id="Layer_1" xmlns="http://www.w3.org/2000/svg" xmlns:xlink="http://www.w3.org/1999/xlink" x="0px" y="0px"
	 viewBox="637 265.9 500 500" style="enable-background:new 637 265.9 500 500;" xml:space="preserve">
<style type="text/css">
	.st0{fill:#FFFFFF;}
</style>
<g>
	<g>
		<path class="st0" d="M887,265.9c-137.9,0-250,112.2-250,250s112.2,250,250,250s250-112.1,250-250S1024.9,265.9,887,265.9z
			 M887,723.5c-114.5,0-207.7-93.1-207.7-207.6S772.4,308.2,887,308.2s207.7,93.2,207.7,207.7S1001.5,723.5,887,723.5z"/>
		<path class="st0" d="M973.9,494.7h-65.7V429c0-11.7-9.5-21.2-21.2-21.2s-21.2,9.5-21.2,21.2v65.7h-65.7
			c-11.7,0-21.2,9.5-21.2,21.2s9.5,21.2,21.2,21.2h65.7v65.7c0,11.7,9.5,21.2,21.2,21.2s21.2-9.5,21.2-21.2v-65.7h65.7
			c11.7,0,21.2-9.5,21.2-21.2C995.1,504.2,985.6,494.7,973.9,494.7z"/>
	</g>
</g>
</svg>
