<?xml version="1.0" encoding="utf-8"?>
<!-- Generator: Adobe Illustrator 18.1.1, SVG Export Plug-In . SVG Version: 6.00 Build 0)  -->
<svg version="1.1" id="Layer_1" xmlns="http://www.w3.org/2000/svg" xmlns:xlink="http://www.w3.org/1999/xlink" x="0px" y="0px"
	 viewBox="0.2 138.9 594.8 563.8" enable-background="new 0.2 138.9 594.8 563.8" xml:space="preserve">
<g>
	<path fill="#FFFFFF" d="M561.8,138.9H32.5c-17.9,0.5-32.2,15.1-32.2,33.2v357.9c0,18.1,14.4,32.7,32.2,33.2h175.1h2.7l87.3,139.4
		l87.3-139.4h2.7h174.1c18.4,0,33.2-14.9,33.2-33.2V172.2C595,153.8,580.2,138.9,561.8,138.9z M297.6,192.8
		c37,0.5,66.7,44.6,66.7,90.8c0,45.9-29.8,90-66.7,90.8c-37-0.5-66.7-44.6-66.7-90.8C230.9,237.4,260.7,193.5,297.6,192.8z
		 M152.3,500.3c0-60.8,49.6-110.4,110.4-110.4h69.7c60.8,0,110.4,49.6,110.4,110.4H152.3z"/>
</g>
</svg>
