<?xml version="1.0" encoding="utf-8"?>
<!-- Generator: Adobe Illustrator 19.1.0, SVG Export Plug-In . SVG Version: 6.00 Build 0)  -->
<svg version="1.1" id="Layer_1" xmlns="http://www.w3.org/2000/svg" xmlns:xlink="http://www.w3.org/1999/xlink" x="0px" y="0px"
	 viewBox="490.9 304.3 106.1 106.1" style="enable-background:new 490.9 304.3 106.1 106.1;" xml:space="preserve">
<style type="text/css">
	.st0{fill:#222222;}
</style>
<path id="XMLID_5_" class="st0" d="M543.9,410.5c-29.3,0-53.1-23.8-53.1-53.1s23.8-53.1,53.1-53.1c29.3,0,53.1,23.8,53.1,53.1
	S573.2,410.5,543.9,410.5z M543.9,318.6c-21.4,0-38.8,17.4-38.8,38.8s17.4,38.8,38.8,38.8c21.4,0,38.8-17.4,38.8-38.8
	C582.8,336,565.4,318.6,543.9,318.6z"/>
<path id="XMLID_3_" class="st0" d="M557.1,362.3C557.1,362.3,557.1,362.3,557.1,362.3c0,2-1.6,3.6-3.6,3.6s-3.6-1.6-3.6-3.6
	c0-1.6,1.1-3,2.6-3.4c-0.7-0.2-1.3-0.3-2-0.3c-4.3,0-7.7,3.4-7.7,7.7c0,4.3,3.4,7.7,7.7,7.7c4.3,0,7.7-3.4,7.7-7.7
	C558.2,364.8,557.8,363.5,557.1,362.3z"/>
</svg>
