<?xml version="1.0" encoding="utf-8"?>
<!-- Generator: Adobe Illustrator 18.1.1, SVG Export Plug-In . SVG Version: 6.00 Build 0)  -->
<svg version="1.1" id="Arrow_1_" xmlns="http://www.w3.org/2000/svg" xmlns:xlink="http://www.w3.org/1999/xlink" x="0px" y="0px"
	 viewBox="-47 170.9 500 500" enable-background="new -47 170.9 500 500" xml:space="preserve">
<g>
	<path fill="#FFFFFF" d="M435.1,188.8c-21.7-21.8-55.6-23.7-79.6-6c-1.5,1.1-2.9,2.3-4.3,3.5l-2.6,2.4l0,0l-10.4,9.9
		c0,0,0,0-0.1,0.1c-0.5,0.5-1,0.9-1.5,1.4c-11.1,9.9-27.4,10.9-39.6,3.1c-0.1-0.1-0.3-0.2-0.4-0.2c-0.1-0.1-0.3-0.2-0.4-0.3
		c-12.2-7.9-28.5-6.9-39.6,3l-1.6,1.5L105,350.4l-1.8,1.8c-4.3,5-4.1,12.6,0.7,17.4c4.8,4.8,12.4,5,17.4,0.6l0.6-0.6c0,0,0,0,0-0.1
		l122.2-116.9c0.2-0.2,0.4-0.4,0.6-0.6c0.3-0.4,0.7-0.7,1.1-1c1.5-1.2,3.2-2,5-2.4c4.2-1,8.7,0.2,12,3.4c2.6,2.6,3.8,6,3.7,9.3
		c0,2.9-1.1,5.9-3.3,8.3c-0.1,0.1-0.3,0.3-0.5,0.5c-0.3,0.3-0.6,0.6-0.9,0.9l0,0L89.5,433.9l-49.6,47c-0.2,0.2-0.4,0.3-0.6,0.5
		c-5.8,5.8-5.8,15.1,0,20.9l82.3,82.3c5.6,5.6,14.5,5.7,20.3,0.5l0,0l1.6-1.6l0,0l46.4-49.1l245.1-259l0,0l2.4-2.5
		c1.2-1.4,2.4-2.8,3.5-4.3C458.8,244.5,456.8,210.6,435.1,188.8z"/>
	<path fill="#FFFFFF" d="M62.7,561.2l-39.9-39.9c-4.3-4.3-11.3-4.3-15.7,0c-0.8,0.8-1.5,1.7-2,2.7l0,0
		c-9.3,19.4-19.7,43.1-26.9,61.2c-6,15.2-11.2,29.4-15.6,42l0,0c-0.8,1.9-0.4,4.2,1.2,5.8c2.5,2.5,2.5,6.5,0,9l-7.1,7.1
		c-1.3,1.3-2.2,2.7-2.8,4.3c-0.2,0.6-0.3,1.1-0.5,1.6l0,0c-1,4.2,0.1,8.7,3.3,12l0,0l0,0c3.3,3.3,7.8,4.4,12,3.4l0,0
		c0.5-0.2,1-0.3,1.6-0.5c1.6-0.6,3-1.6,4.3-2.8l7.1-7.1c2.5-2.5,6.5-2.4,9,0c1.6,1.5,3.9,2,5.8,1.2l0,0c12.6-4.4,26.9-9.6,42-15.6
		c18.2-7.2,41.8-17.6,61.2-26.9l0,0c1-0.5,1.9-1.2,2.7-2c4.3-4.3,4.3-11.4,0-15.7L62.7,561.2z"/>
</g>
</svg>
