<?xml version="1.0" encoding="utf-8"?>
<!-- Generator: Adobe Illustrator 19.1.0, SVG Export Plug-In . SVG Version: 6.00 Build 0)  -->
<svg version="1.1" id="Layer_1" xmlns="http://www.w3.org/2000/svg" xmlns:xlink="http://www.w3.org/1999/xlink" x="0px" y="0px"
	 viewBox="123 123.6 499.9 500" style="enable-background:new 123 123.6 499.9 500;" xml:space="preserve">
<style type="text/css">
	.st0{fill:#222222;}
</style>
<g>
	<g>
		<g>
			<path class="st0" d="M563.5,123.6h-381c-32.9,0-59.5,26.7-59.5,59.5v381c0,32.9,26.6,59.5,59.5,59.5h381
				c32.8,0,59.4-26.6,59.4-59.5v-381C622.8,150.3,596.2,123.6,563.5,123.6z M372.6,278.9c53.2,0,96.3,43.1,96.3,96.3
				c0,53.1-43.1,96.3-96.3,96.3s-96.3-43.2-96.3-96.3C276.3,322,319.4,278.9,372.6,278.9z M565.2,548.5c0,10.5-8.6,19.2-19.3,19.2
				H199.3c-10.7,0-19.3-8.6-19.3-19.2V336.6h43.7c-3.1,12.3-5,25.3-5,38.6c0,85.1,68.9,154,154,154s154.1-68.9,154.1-154
				c0-13.4-1.9-26.3-5-38.6h43.5v211.9H565.2z M565.2,259.6c0,10.7-8.6,19.3-19.3,19.3h-57.7c-10.7,0-19.3-8.6-19.3-19.3v-57.7
				c0-10.7,8.6-19.3,19.3-19.3h57.7c10.7,0,19.3,8.6,19.3,19.3V259.6z"/>
		</g>
	</g>
</g>
</svg>
