<?xml version="1.0" encoding="utf-8"?>
<!-- Generator: Adobe Illustrator 19.1.0, SVG Export Plug-In . SVG Version: 6.00 Build 0)  -->
<svg version="1.1" id="Layer_1" xmlns="http://www.w3.org/2000/svg" xmlns:xlink="http://www.w3.org/1999/xlink" x="0px" y="0px"
	 viewBox="535.1 70.8 720.4 726" style="enable-background:new 535.1 70.8 720.4 726;" xml:space="preserve">
<style type="text/css">
	.st0{fill:#C92929;}
</style>
<g>
	<path class="st0" d="M535.1,448.8c0-54.6,9.1-105.3,27.2-152c18.2-46.8,43.4-86.7,75.8-119.8s71.8-59.1,118.4-77.9
		c46.5-18.8,97.3-28.2,152.3-28.2c53.8,0,102.8,8.3,146.8,25c44,16.7,80.5,39.8,109.5,69.3s51.3,64.4,67,104.7
		c15.7,40.2,23.5,83.9,23.5,131c0,20.9-1.9,41.4-5.8,61.6c-3.9,20.2-10.3,40.3-19.4,60.2c-9.1,19.9-20.3,37.3-33.7,52.3
		c-13.4,15-30.6,27.1-51.6,36.4c-20.9,9.3-44.2,14-69.8,14c-47.3,0-78.9-19.9-94.8-59.8h-6.8c-8.9,17.3-22.2,31.6-39.9,42.9
		c-17.7,11.3-38.3,16.9-61.7,16.9c-39.8,0-73-15.6-99.6-46.8c-26.6-31.2-39.8-69-39.8-113.6c0-47,13.3-86,40-116.9
		c26.7-30.9,60.6-46.3,101.6-46.3c34.1,0,65.6,15.2,94.5,45.5c1.1-2.5,2.7-6.9,4.8-13.2c2.1-6.3,3.6-10.1,4.4-11.5
		c0.8-1.4,2.5-3.6,5.2-6.6c2.7-3,5.9-4.8,9.6-5.5c3.7-0.6,8.6-0.9,14.4-0.9h14c4.3,0,8,1.4,11,4.2c3.1,2.8,4.6,6.4,4.6,10.7v142.6
		c0,15.9,1.2,29.3,3.8,40.1c2.5,10.8,6.1,19,10.7,24.4c4.6,5.4,9.6,9.2,14.8,11.2c5.2,2,11.4,3.1,18.4,3.1c16,0,30.1-6.7,42.4-20
		c12.2-13.4,21.4-30.6,27.6-51.8c6.1-21.2,9.2-44.4,9.2-69.7c0-35.7-5.4-68.6-16.3-98.8s-26.8-56.6-47.8-79.2
		c-21-22.6-48-40.3-81.2-53c-33.1-12.7-70.7-19-112.7-19c-85.3,0-153.1,25.8-203.4,77.5c-50.3,51.7-75.4,124-75.4,216.9
		c0,61.4,17,116.2,50.9,164.2c33.9,48,78.7,83.7,134.2,107c8.8,3.8,11.6,9.9,8.5,18.4L801.5,787c-3.6,8.8-9.4,11.7-17.4,8.7
		c-73.1-25.8-132.9-70.3-179.4-133.4C558.3,599.2,535.1,528.1,535.1,448.8z M812.7,460c-1.5,23.1,4.6,42.5,18.2,58.2
		c13.6,15.7,29.9,23.6,49,23.6c15.5,0,28.3-4,38.3-12.1s16.9-17.7,20.6-29c3.8-11.3,5.9-24.4,6.4-39.3V434
		c-2.3-10.6-9.6-21.3-22.1-32.3c-12.5-10.9-27.1-16.4-43.9-16.4c-18.5,0-34,6.9-46.3,20.7C820.4,419.9,813.7,437.9,812.7,460z"/>
</g>
</svg>
