<?xml version="1.0" encoding="iso-8859-1"?>
<!-- Generator: Adobe Illustrator 19.1.0, SVG Export Plug-In . SVG Version: 6.00 Build 0)  -->
<!DOCTYPE svg PUBLIC "-//W3C//DTD SVG 1.1//EN" "http://www.w3.org/Graphics/SVG/1.1/DTD/svg11.dtd">
<svg version="1.1" id="Layer_1" xmlns="http://www.w3.org/2000/svg" xmlns:xlink="http://www.w3.org/1999/xlink" x="0px" y="0px"
     viewBox="0 0 841.89 595.28" style="enable-background:new 0 0 841.89 595.28;" xml:space="preserve">
<g>
    <g>
        <path style="fill:#FFFFFF;" d="M660.279,330.069c-15.4,0-28.1,12.5-28.1,28.1v123h-374.4v-123c0-15.5-12.5-28.1-28.1-28.1
            s-28,12.5-28,28v151.1c0,15.4,12.5,28.1,28.1,28.1h430.5c15.5,0,28.1-12.5,28.1-28.1v-151.1
            C688.379,342.569,675.879,330.069,660.279,330.069z"/>
        <path style="fill:#FFFFFF;" d="M425.379,393.269c5.2,5.2,12.4,8.2,19.8,8.2c7.4,0,14.5-2.9,19.8-8.2l113-113
            c10.9-10.9,10.9-28.7,0-39.6c-10.9-10.9-28.7-10.9-39.6,0l-65.1,65.1v-240.4c0-15.4-12.5-28.1-28.1-28.1s-28.1,12.5-28.1,28.1
            v240.5l-65.1-65.2c-11-10.9-28.8-10.9-39.7,0s-10.9,28.7,0,39.6L425.379,393.269z"/>
    </g>
</g>
</svg>