<?xml version="1.0" encoding="utf-8"?>
<!-- Generator: Adobe Illustrator 19.1.0, SVG Export Plug-In . SVG Version: 6.00 Build 0)  -->
<svg version="1.1" id="Layer_1" xmlns="http://www.w3.org/2000/svg" xmlns:xlink="http://www.w3.org/1999/xlink" x="0px" y="0px"
	 viewBox="256.5 496.4 574.9 37" style="enable-background:new 256.5 496.4 574.9 37;" xml:space="preserve">
<style type="text/css">
	.st0{fill:#383838;}
</style>
<g id="XMLID_100_">
	<g id="XMLID_107_">
		<g id="XMLID_333_">
			<path id="XMLID_362_" class="st0" d="M256.5,528.5c0,0,0-0.1,0-0.1c0-0.2,0.1-0.4,0.2-0.8l1.9-3.2c0.2-0.3,0.5-0.5,0.9-0.6
				c0.4-0.1,0.7,0,0.9,0.2l0.3,0.2c0.2,0.1,0.4,0.2,0.6,0.4c0.2,0.1,0.5,0.3,0.8,0.5c0.3,0.2,0.7,0.4,1,0.6c0.4,0.2,0.8,0.4,1.2,0.6
				c0.4,0.2,0.9,0.4,1.3,0.5c0.4,0.1,0.9,0.2,1.3,0.3c0.5,0.1,0.9,0.1,1.3,0.1c1.3,0,2.5-0.4,3.4-1.2c0.9-0.8,1.4-1.7,1.4-2.8
				c0-1.3-0.5-2.4-1.6-3.3c-1.1-1-2.7-1.9-5-2.8c-1.4-0.6-2.6-1.1-3.6-1.7c-1-0.6-2.1-1.4-3-2.2c-1-0.9-1.7-1.9-2.3-3.1
				s-0.8-2.5-0.8-4c0-1.2,0.2-2.3,0.7-3.4c0.5-1.1,1.1-2.1,2-3.1c0.9-0.9,2.1-1.7,3.7-2.3c1.5-0.6,3.3-0.9,5.3-0.9
				c1.2,0,2.4,0.1,3.5,0.4c1.2,0.3,2.2,0.6,3,1s1.6,0.8,2.1,1.1c0.5,0.3,1,0.6,1.3,0.9c0.2,0.1,0.4,0.4,0.5,0.8s0,0.7-0.2,0.9
				l-1.8,2.8c-0.2,0.3-0.5,0.6-0.8,0.7c-0.3,0.1-0.6,0.1-0.9-0.1c-3-1.9-5.3-2.8-7-2.8c-1.4,0-2.5,0.4-3.3,1.1s-1.2,1.6-1.2,2.5
				c0,1.2,0.5,2.2,1.4,3.1c1,0.9,2.5,1.8,4.7,2.6c0.8,0.3,1.5,0.6,2.1,0.9c0.6,0.3,1.3,0.7,2,1.1c0.7,0.4,1.4,0.9,1.9,1.3
				c0.6,0.4,1.1,1,1.7,1.6c0.5,0.6,1,1.2,1.4,1.9c0.4,0.7,0.6,1.4,0.9,2.2c0.2,0.8,0.3,1.7,0.3,2.6c0,2.8-1.1,5.3-3.2,7.3
				c-2.1,2.1-4.9,3.1-8.2,3.1c-1.5,0-3-0.2-4.3-0.5c-1.4-0.3-2.5-0.7-3.5-1.2c-1-0.5-1.7-1-2.2-1.3c-0.5-0.4-1-0.8-1.4-1.1
				C256.8,528.9,256.6,528.7,256.5,528.5z"/>
			<path id="XMLID_360_" class="st0" d="M302.1,519.2v-21.4c0-0.3,0.1-0.5,0.3-0.7c0.2-0.2,0.4-0.3,0.7-0.3h4.9
				c0.3,0,0.5,0.1,0.7,0.3c0.2,0.2,0.3,0.4,0.3,0.7v21c0,2.2,0.7,4.1,2.1,5.6s3.2,2.2,5.4,2.2s4-0.7,5.5-2.2s2.1-3.3,2.1-5.5v-21.1
				c0-0.3,0.1-0.5,0.3-0.7c0.2-0.2,0.4-0.3,0.7-0.3h4.9c0.3,0,0.5,0.1,0.7,0.3c0.2,0.2,0.3,0.4,0.3,0.7v21.4c0,1.9-0.4,3.8-1.1,5.5
				s-1.8,3.2-3,4.5c-1.3,1.3-2.8,2.3-4.6,3c-1.8,0.7-3.7,1.1-5.7,1.1c-2.7,0-5.1-0.6-7.3-1.9c-2.2-1.3-3.9-3-5.2-5.1
				C302.7,524.2,302.1,521.8,302.1,519.2z"/>
			<path id="XMLID_357_" class="st0" d="M355.5,531.9v-34c0-0.3,0.1-0.5,0.3-0.7c0.2-0.2,0.4-0.3,0.7-0.3h12.3
				c3.2,0,5.9,1.1,8.2,3.3s3.4,4.9,3.4,8c0,2.1-0.5,4-1.6,5.8s-2.5,3.2-4.2,4.2c-1.8,1-3.7,1.6-5.8,1.6h-6.5v12.1
				c0,0.3-0.1,0.5-0.3,0.7c-0.2,0.2-0.4,0.3-0.7,0.3h-4.8c-0.3,0-0.5-0.1-0.7-0.3C355.6,532.4,355.5,532.1,355.5,531.9z
				 M362.3,513.5h6c1.5,0,2.7-0.5,3.8-1.5c1-1,1.6-2.3,1.6-3.8c0-1.4-0.5-2.6-1.6-3.6c-1-1-2.3-1.4-3.8-1.4h-6V513.5z"/>
			<path id="XMLID_355_" class="st0" d="M401.8,531.9v-34c0-0.3,0.1-0.5,0.3-0.7c0.2-0.2,0.4-0.3,0.7-0.3H424c0.3,0,0.5,0.1,0.7,0.3
				c0.2,0.2,0.3,0.4,0.3,0.7v4.2c0,0.3-0.1,0.5-0.3,0.7c-0.2,0.2-0.4,0.3-0.7,0.3h-15.4v8.5h12.8c0.3,0,0.5,0.1,0.7,0.3
				c0.2,0.2,0.3,0.4,0.3,0.7v4.2c0,0.3-0.1,0.5-0.3,0.7c-0.2,0.2-0.4,0.3-0.7,0.3h-12.8v9H424c0.3,0,0.5,0.1,0.7,0.3
				c0.2,0.2,0.3,0.4,0.3,0.7v4.2c0,0.3-0.1,0.5-0.3,0.7c-0.2,0.2-0.4,0.3-0.7,0.3h-21.1c-0.3,0-0.5-0.1-0.7-0.3
				C401.9,532.4,401.8,532.1,401.8,531.9z"/>
			<path id="XMLID_352_" class="st0" d="M447.9,531.9v-34c0-0.3,0.1-0.5,0.3-0.7c0.2-0.2,0.4-0.3,0.7-0.3h14.9c3.1,0,5.8,1.1,8,3.2
				c2.2,2.2,3.3,4.8,3.3,7.8c0,2.3-0.7,4.4-2.1,6.3c-1.4,1.9-3.3,3.2-5.6,4.2l7.1,13c0.2,0.3,0.2,0.7,0,1c-0.2,0.3-0.5,0.5-0.9,0.5
				h-5.5c-0.4,0-0.7-0.1-0.8-0.4l-6.9-13.5h-5.8v13c0,0.2-0.1,0.5-0.3,0.7c-0.2,0.2-0.4,0.3-0.7,0.3h-4.8c-0.3,0-0.5-0.1-0.7-0.3
				C448,532.4,447.9,532.1,447.9,531.9z M454.8,513.3h8.4c1.4,0,2.6-0.5,3.6-1.5c1-1,1.5-2.3,1.5-3.7c0-1.4-0.5-2.5-1.5-3.5
				c-1-1-2.2-1.5-3.6-1.5h-8.4V513.3z"/>
			<path id="XMLID_350_" class="st0" d="M495.7,528.5c0,0,0-0.1,0-0.1c0-0.2,0.1-0.4,0.2-0.8l1.9-3.2c0.2-0.3,0.5-0.5,0.9-0.6
				c0.4-0.1,0.7,0,0.9,0.2l0.3,0.2c0.2,0.1,0.4,0.2,0.6,0.4c0.2,0.1,0.5,0.3,0.8,0.5c0.3,0.2,0.7,0.4,1,0.6c0.4,0.2,0.8,0.4,1.2,0.6
				c0.4,0.2,0.9,0.4,1.3,0.5c0.4,0.1,0.9,0.2,1.3,0.3c0.5,0.1,0.9,0.1,1.3,0.1c1.3,0,2.5-0.4,3.4-1.2c0.9-0.8,1.4-1.7,1.4-2.8
				c0-1.3-0.5-2.4-1.6-3.3c-1.1-1-2.7-1.9-5-2.8c-1.4-0.6-2.6-1.1-3.6-1.7c-1-0.6-2.1-1.4-3-2.2c-1-0.9-1.7-1.9-2.3-3.1
				s-0.8-2.5-0.8-4c0-1.2,0.2-2.3,0.7-3.4c0.5-1.1,1.1-2.1,2-3.1c0.9-0.9,2.1-1.7,3.7-2.3c1.5-0.6,3.3-0.9,5.3-0.9
				c1.2,0,2.4,0.1,3.5,0.4c1.2,0.3,2.2,0.6,3,1s1.6,0.8,2.1,1.1c0.5,0.3,1,0.6,1.3,0.9c0.2,0.1,0.4,0.4,0.5,0.8s0,0.7-0.2,0.9
				l-1.8,2.8c-0.2,0.3-0.5,0.6-0.8,0.7c-0.3,0.1-0.6,0.1-0.9-0.1c-3-1.9-5.3-2.8-7-2.8c-1.4,0-2.5,0.4-3.3,1.1s-1.2,1.6-1.2,2.5
				c0,1.2,0.5,2.2,1.4,3.1c1,0.9,2.5,1.8,4.7,2.6c0.8,0.3,1.5,0.6,2.1,0.9c0.6,0.3,1.3,0.7,2,1.1c0.7,0.4,1.4,0.9,1.9,1.3
				c0.6,0.4,1.1,1,1.7,1.6c0.5,0.6,1,1.2,1.4,1.9c0.4,0.7,0.6,1.4,0.9,2.2c0.2,0.8,0.3,1.7,0.3,2.6c0,2.8-1.1,5.3-3.2,7.3
				c-2.1,2.1-4.9,3.1-8.2,3.1c-1.5,0-3-0.2-4.3-0.5c-1.4-0.3-2.5-0.7-3.5-1.2c-1-0.5-1.7-1-2.2-1.3c-0.5-0.4-1-0.8-1.4-1.1
				C496,528.9,495.8,528.7,495.7,528.5z"/>
			<path id="XMLID_348_" class="st0" d="M541.8,531.9v-34.6c0-0.3,0.1-0.5,0.3-0.7c0.2-0.2,0.4-0.3,0.7-0.3h1.3l21.6,22.7h0.1v-21.2
				c0-0.3,0.1-0.5,0.3-0.7c0.2-0.2,0.4-0.3,0.7-0.3h4.8c0.3,0,0.5,0.1,0.7,0.3c0.2,0.2,0.3,0.4,0.3,0.7v34.6c0,0.3-0.1,0.5-0.3,0.6
				c-0.2,0.2-0.4,0.3-0.7,0.3h-1.2l-21.7-23.6h-0.1v22.1c0,0.3-0.1,0.5-0.3,0.7s-0.4,0.3-0.7,0.3h-4.8c-0.3,0-0.5-0.1-0.7-0.3
				C541.9,532.3,541.8,532.1,541.8,531.9z"/>
			<path id="XMLID_345_" class="st0" d="M594.9,514.9c0-1.7,0.2-3.3,0.7-4.9c0.4-1.6,1.1-3.1,1.9-4.4s1.8-2.6,2.9-3.7
				c1.1-1.1,2.4-2.1,3.8-2.9c1.4-0.8,2.9-1.4,4.5-1.9c1.6-0.4,3.3-0.7,5-0.7c2.6,0,5,0.5,7.3,1.5c2.3,1,4.3,2.3,6,3.9
				c1.7,1.7,3,3.6,4,5.9s1.5,4.7,1.5,7.2c0,2.5-0.5,4.9-1.5,7.2c-1,2.3-2.3,4.2-4,5.9s-3.7,2.9-6,3.9c-2.3,1-4.7,1.4-7.3,1.4
				c-2.6,0-5-0.5-7.3-1.4c-2.3-1-4.3-2.3-6-3.9c-1.7-1.6-3-3.6-3.9-5.9C595.4,519.8,594.9,517.4,594.9,514.9z M601.7,514.9
				c0,3.2,1.2,6,3.5,8.3c2.3,2.3,5.1,3.5,8.4,3.5c2.1,0,4.1-0.5,6-1.6c1.8-1.1,3.3-2.5,4.4-4.3c1.1-1.8,1.6-3.8,1.6-5.9
				c0-2.1-0.5-4.1-1.6-5.9c-1.1-1.8-2.5-3.3-4.4-4.3c-1.8-1.1-3.8-1.6-6-1.6c-2.1,0-4.1,0.5-6,1.6c-1.8,1.1-3.3,2.5-4.3,4.3
				C602.2,510.8,601.7,512.8,601.7,514.9z"/>
			<path id="XMLID_342_" class="st0" d="M652.1,514.9c0-1.7,0.2-3.3,0.7-4.9c0.4-1.6,1.1-3.1,1.9-4.4c0.8-1.4,1.8-2.6,2.9-3.7
				s2.4-2.1,3.8-2.9c1.4-0.8,2.9-1.4,4.5-1.9c1.6-0.4,3.3-0.7,5-0.7c2.6,0,5,0.5,7.3,1.5c2.3,1,4.3,2.3,6,3.9c1.7,1.7,3,3.6,4,5.9
				c1,2.3,1.5,4.7,1.5,7.2c0,2.5-0.5,4.9-1.5,7.2c-1,2.3-2.3,4.2-4,5.9c-1.7,1.6-3.7,2.9-6,3.9c-2.3,1-4.7,1.4-7.3,1.4
				s-5-0.5-7.3-1.4c-2.3-1-4.3-2.3-6-3.9c-1.7-1.6-3-3.6-3.9-5.9C652.5,519.8,652.1,517.4,652.1,514.9z M658.8,514.9
				c0,3.2,1.2,6,3.5,8.3c2.3,2.3,5.1,3.5,8.4,3.5c2.1,0,4.1-0.5,6-1.6c1.8-1.1,3.3-2.5,4.4-4.3s1.6-3.8,1.6-5.9
				c0-2.1-0.5-4.1-1.6-5.9c-1.1-1.8-2.5-3.3-4.4-4.3c-1.8-1.1-3.8-1.6-6-1.6s-4.1,0.5-6,1.6s-3.3,2.5-4.3,4.3
				C659.4,510.8,658.8,512.8,658.8,514.9z"/>
			<path id="XMLID_339_" class="st0" d="M711.8,531.9v-34c0-0.3,0.1-0.5,0.3-0.7c0.2-0.2,0.4-0.3,0.7-0.3H725c3.2,0,5.9,1.1,8.2,3.3
				c2.3,2.2,3.4,4.9,3.4,8c0,2.1-0.5,4-1.6,5.8c-1,1.8-2.5,3.2-4.2,4.2c-1.8,1-3.7,1.6-5.8,1.6h-6.5v12.1c0,0.3-0.1,0.5-0.3,0.7
				c-0.2,0.2-0.4,0.3-0.7,0.3h-4.8c-0.3,0-0.5-0.1-0.7-0.3C711.9,532.4,711.8,532.1,711.8,531.9z M718.5,513.5h6
				c1.5,0,2.7-0.5,3.8-1.5c1-1,1.6-2.3,1.6-3.8c0-1.4-0.5-2.6-1.6-3.6s-2.3-1.4-3.8-1.4h-6V513.5z"/>
			<path id="XMLID_337_" class="st0" d="M758.1,531.9v-34c0-0.3,0.1-0.5,0.3-0.7c0.2-0.2,0.4-0.3,0.7-0.3h21.1
				c0.3,0,0.5,0.1,0.7,0.3c0.2,0.2,0.3,0.4,0.3,0.7v4.2c0,0.3-0.1,0.5-0.3,0.7c-0.2,0.2-0.4,0.3-0.7,0.3h-15.4v8.5h12.8
				c0.3,0,0.5,0.1,0.7,0.3c0.2,0.2,0.3,0.4,0.3,0.7v4.2c0,0.3-0.1,0.5-0.3,0.7s-0.4,0.3-0.7,0.3h-12.8v9h15.4c0.3,0,0.5,0.1,0.7,0.3
				c0.2,0.2,0.3,0.4,0.3,0.7v4.2c0,0.3-0.1,0.5-0.3,0.7c-0.2,0.2-0.4,0.3-0.7,0.3h-21.1c-0.3,0-0.5-0.1-0.7-0.3
				C758.2,532.4,758.1,532.1,758.1,531.9z"/>
			<path id="XMLID_334_" class="st0" d="M804.2,531.9v-34c0-0.3,0.1-0.5,0.3-0.7c0.2-0.2,0.4-0.3,0.7-0.3h14.9c3.1,0,5.8,1.1,8,3.2
				c2.2,2.2,3.3,4.8,3.3,7.8c0,2.3-0.7,4.4-2.1,6.3c-1.4,1.9-3.3,3.2-5.6,4.2l7.1,13c0.2,0.3,0.2,0.7,0,1c-0.2,0.3-0.5,0.5-0.9,0.5
				h-5.5c-0.4,0-0.7-0.1-0.8-0.4l-6.9-13.5H811v13c0,0.2-0.1,0.5-0.3,0.7c-0.2,0.2-0.4,0.3-0.7,0.3h-4.8c-0.3,0-0.5-0.1-0.7-0.3
				C804.3,532.4,804.2,532.1,804.2,531.9z M811,513.3h8.4c1.4,0,2.6-0.5,3.6-1.5c1-1,1.5-2.3,1.5-3.7c0-1.4-0.5-2.5-1.5-3.5
				c-1-1-2.2-1.5-3.6-1.5H811V513.3z"/>
		</g>
	</g>

	<!--Eyes-->
	<circle id="XMLID_99_" class="st0" cx="673.4" cy="519.1" r="4"/>
	<circle id="XMLID_103_" class="st0" cx="615.4" cy="519.1" r="4"/>
</g>
</svg>
