<?xml version="1.0" encoding="utf-8"?>
<!-- Generator: Adobe Illustrator 18.1.1, SVG Export Plug-In . SVG Version: 6.00 Build 0)  -->
<svg version="1.1" id="Arrow_1_" xmlns="http://www.w3.org/2000/svg" xmlns:xlink="http://www.w3.org/1999/xlink" x="0px" y="0px"
	 viewBox="-47 170.9 500 500" enable-background="new -47 170.9 500 500" xml:space="preserve">
<g>
	<path fill="#FFFFFF" d="M418.3,463.7c-15.4,0-28.1,12.5-28.1,28.1v123H15.8v-123c0-15.5-12.5-28.1-28.1-28.1s-28,12.5-28,28v151.1
		c0,15.4,12.5,28.1,28.1,28.1h430.5c15.5,0,28.1-12.5,28.1-28.1V491.7C446.4,476.2,433.9,463.7,418.3,463.7z"/>
	<path fill="#FFFFFF" d="M183.4,526.9c5.2,5.2,12.4,8.2,19.8,8.2s14.5-2.9,19.8-8.2l113-113c10.9-10.9,10.9-28.7,0-39.6
		s-28.7-10.9-39.6,0l-65.1,65.1V199c0-15.4-12.5-28.1-28.1-28.1s-28.1,12.5-28.1,28.1v240.5L110,374.3c-11-10.9-28.8-10.9-39.7,0
		s-10.9,28.7,0,39.6L183.4,526.9z"/>
</g>
</svg>
