<?xml version="1.0" encoding="utf-8"?>
<!-- Generator: Adobe Illustrator 18.1.1, SVG Export Plug-In . SVG Version: 6.00 Build 0)  -->
<svg version="1.1" id="Layer_1" xmlns="http://www.w3.org/2000/svg" xmlns:xlink="http://www.w3.org/1999/xlink" x="0px" y="0px"
	 viewBox="0 0 45.3 47.8" enable-background="new 0 0 45.3 47.8" xml:space="preserve">
<path fill="#FFFFFF" d="M43.3,8.4H32.6l-7.8-7.9c-0.8-0.8-2-0.8-2.8,0L14,8.4H2c-1.1,0-2,0.9-2,2v35.4c0,1.1,0.9,2,2,2h41.3
	c1.1,0,2-0.9,2-2V10.4C45.3,9.3,44.4,8.4,43.3,8.4z M35.9,41.2H10v-5.3c0,0,6-3.2,9.8-4c0-1,0-2.7,0-3.2c-1.8-1.4-3.1-4-3.1-6.9
	c0-4.4,2.7-8,6.1-8c3.4,0,6.1,3.6,6.1,8c0,2.9-1.2,5.4-2.9,6.8h0.1c0,0,0,2.1,0,3.3c3.8,0.8,9.8,4,9.8,4V41.2z"/>
</svg>
