<?xml version="1.0" encoding="utf-8"?>
<!-- Generator: Adobe Illustrator 18.1.0, SVG Export Plug-In . SVG Version: 6.00 Build 0)  -->
<!DOCTYPE svg PUBLIC "-//W3C//DTD SVG 1.1//EN" "http://www.w3.org/Graphics/SVG/1.1/DTD/svg11.dtd">
<svg version="1.1" id="Arrow_1_" xmlns="http://www.w3.org/2000/svg" xmlns:xlink="http://www.w3.org/1999/xlink" x="0px" y="0px"
	 width="500px" height="500px" viewBox="0 0 500 500" enable-background="new 0 0 500 500" xml:space="preserve">
<g>
	<g>
		<path fill="#36A9E1" d="M440.6,0h-381C26.7,0,0.1,26.7,0.1,59.5v381c0,32.9,26.6,59.5,59.5,59.5h381c32.8,0,59.4-26.6,59.4-59.5
			v-381C499.9,26.7,473.3,0,440.6,0z M249.7,155.3c53.2,0,96.3,43.1,96.3,96.3c0,53.1-43.1,96.3-96.3,96.3s-96.3-43.2-96.3-96.3
			C153.4,198.4,196.5,155.3,249.7,155.3z M442.3,424.9c0,10.5-8.6,19.2-19.3,19.2H76.4c-10.7,0-19.3-8.6-19.3-19.2V213h43.7
			c-3.1,12.3-5,25.3-5,38.6c0,85.1,68.9,154,154,154s154.1-68.9,154.1-154c0-13.4-1.9-26.3-5-38.6h43.5V424.9z M442.3,136
			c0,10.7-8.6,19.3-19.3,19.3h-57.7c-10.7,0-19.3-8.6-19.3-19.3V78.3c0-10.7,8.6-19.3,19.3-19.3H423c10.7,0,19.3,8.6,19.3,19.3V136z
			"/>
	</g>
</g>
</svg>
