<?xml version="1.0" encoding="utf-8"?>
<!-- Generator: Adobe Illustrator 19.1.0, SVG Export Plug-In . SVG Version: 6.00 Build 0)  -->
<svg version="1.1" id="Layer_1" xmlns="http://www.w3.org/2000/svg" xmlns:xlink="http://www.w3.org/1999/xlink" x="0px" y="0px"
	 viewBox="397.5 228.6 338.9 369.5" style="enable-background:new 397.5 228.6 338.9 369.5;" xml:space="preserve">
<style type="text/css">
	.st0{fill:#eebc32;}
</style>
<g>
	<path class="st0" d="M716.5,366.4c11,0,20-8.9,20-20c0-11-9-20-20-20h-51.7l11.5-74.7c1.7-10.9-5.8-21.1-16.7-22.8
		c-10.9-1.7-21.1,5.8-22.8,16.7l-12.5,80.8h-84.1l11.5-74.7c1.7-10.9-5.8-21.1-16.7-22.8c-10.9-1.7-21.1,5.8-22.8,16.7l-12.5,80.8
		H430c-11,0-20,9-20,20c0,11.1,9,20,20,20h63.7l-11.1,72.1h-65c-11,0-20,9-20,20c0,11,9,20,20,20h58.8L461.5,575
		c-1.7,10.9,5.8,21.1,16.7,22.8c1,0.2,2.1,0.2,3.1,0.2c9.7,0,18.2-7.1,19.7-17l15.8-102.6h84L586,575c-1.7,10.9,5.8,21.1,16.7,22.8
		c1,0.2,2.1,0.2,3.1,0.2c9.7,0,18.2-7.1,19.7-17l15.8-102.6H704c11,0,20-9,20-20c0-11-9-20-20-20h-56.5l11.1-72.1H716.5z
		 M607.1,438.5h-84l11.1-72.1h84L607.1,438.5z"/>
</g>
</svg>
