<?xml version="1.0" encoding="utf-8"?>
<!-- Generator: Adobe Illustrator 18.1.1, SVG Export Plug-In . SVG Version: 6.00 Build 0)  -->
<svg version="1.1" id="Layer_1" xmlns="http://www.w3.org/2000/svg" xmlns:xlink="http://www.w3.org/1999/xlink" x="0px" y="0px"
	 viewBox="-47 170.9 500 500" enable-background="new -47 170.9 500 500" xml:space="preserve">
<g>
	<path fill="#FFFFFF" d="M453,610.7L273.8,426c13.6-24.6,21.3-52.8,21.3-82.8c0-94.7-76.6-171.4-171.1-171.4
		c-94.4,0-171,76.7-171,171.4s76.6,171.4,171,171.4c33.6,0,64.9-9.9,91.3-26.6L392,670.1L453,610.7z M126.4,451.4
		c-60.5,0-109.6-48.7-109.6-108.8s49.1-108.8,109.6-108.8S236,282.5,236,342.6C235.9,402.7,186.9,451.4,126.4,451.4z"/>
</g>
</svg>
