<?xml version="1.0" encoding="utf-8"?>
<!-- Generator: Adobe Illustrator 18.1.1, SVG Export Plug-In . SVG Version: 6.00 Build 0)  -->
<svg version="1.1" id="Arrow_1_" xmlns="http://www.w3.org/2000/svg" xmlns:xlink="http://www.w3.org/1999/xlink" x="0px" y="0px"
	 viewBox="-47 170.9 500 500" enable-background="new -47 170.9 500 500" xml:space="preserve">
<g>
	<path fill="#FFFFFF" d="M203,170.9c-137.9,0-250,112.2-250,250s112.2,250,250,250s250-112.1,250-250S340.9,170.9,203,170.9z
		 M203,628.5C88.5,628.5-4.7,535.4-4.7,420.9S88.4,213.2,203,213.2s207.7,93.2,207.7,207.7S317.5,628.5,203,628.5z"/>
	<path fill="#FFFFFF" d="M289.9,399.7h-65.7V334c0-11.7-9.5-21.2-21.2-21.2s-21.2,9.5-21.2,21.2v65.7h-65.7
		c-11.7,0-21.2,9.5-21.2,21.2s9.5,21.2,21.2,21.2h65.7v65.7c0,11.7,9.5,21.2,21.2,21.2s21.2-9.5,21.2-21.2v-65.7h65.7
		c11.7,0,21.2-9.5,21.2-21.2C311.1,409.2,301.6,399.7,289.9,399.7z"/>
</g>
</svg>
