<?xml version="1.0" encoding="utf-8"?>
<!-- Generator: Adobe Illustrator 19.1.0, SVG Export Plug-In . SVG Version: 6.00 Build 0)  -->
<svg version="1.1" id="Layer_1" xmlns="http://www.w3.org/2000/svg" xmlns:xlink="http://www.w3.org/1999/xlink" x="0px" y="0px"
     viewBox="194.3 208.7 499.9 418.8" style="enable-background:new 194.3 208.7 499.9 418.8;" xml:space="preserve">
<style type="text/css">
    .st0{fill:#222222;}
</style>
<g>
    <path class="st0" d="M620.6,221c-60.3-28.4-131.6-5.8-165,50.4l0,0c-0.1,0.2-0.2,0.4-0.3,0.5c0,0.1-0.1,0.1-0.1,0.2
        c-2.3,3.6-6.3,6-10.9,6s-8.6-2.4-10.9-6c0,0-0.1-0.1-0.1-0.2c-0.1-0.2-0.2-0.4-0.3-0.5l0,0c-33.4-56.1-104.7-78.8-165-50.4
        c-64.1,30.2-91.6,106.7-61.4,170.8c23.8,50.6,158,175.7,213.6,226.3l0,0c6.3,5.8,14.8,9.4,24.1,9.4c9.2,0,17.7-3.5,24-9.3
        c55.5-50.5,189.8-175.7,213.7-226.4C712.2,327.7,684.8,251.2,620.6,221z"/>
</g>
</svg>
