<?xml version="1.0" encoding="utf-8"?>
<!-- Generator: Adobe Illustrator 19.1.0, SVG Export Plug-In . SVG Version: 6.00 Build 0)  -->
<svg version="1.1" id="Layer_1" xmlns="http://www.w3.org/2000/svg" xmlns:xlink="http://www.w3.org/1999/xlink" x="0px" y="0px"
     viewBox="303.9 151.6 480 500" style="enable-background:new 303.9 151.6 480 500;" xml:space="preserve">
<style type="text/css">
    .st0{fill:#222222;}
</style>
<g>
    <path class="st0" d="M545.9,151.6c-134,0-242,108-242,242c0,48,14,92,38,130c2,2,2,2,2,4l0,0c2,6,4,12,4,18c0,2-22,90-22,90l0,0
        c-2,6,2,14,10,16c2,0,6,0,8,0h2l72-34c2,0,2-2,4-2l0,0c4-2,10-2,14-2s8,0,12,2l0,0h2c28,12,60,20,94,20c134,0,240-108,240-242
        C785.9,259.6,677.9,151.6,545.9,151.6z"/>
</g>
</svg>
